# xmcd
#
# Track frame offsets:
#  150
#  13402
#  26139
#  39313
#  52051
#  63176
#  77468
#  88233
#  95447
#  108616
#  123863
#  135387
#  153100
#  166052
#  182408
#  197069
#  209903
#  227080
#  241525
#  255783
#  268500
#  276331
#  289518
#
# Disc length: 4123 seconds
#
# Revision: 8
# Processed by: cddbd v1.5.1PL2 Copyright (c) Steve Scherf et al.
# Submitted via: Collectorz.com_Music_Collector 6.11
#
DISCID=32101917
DTITLE=Funny van Dannen - Uruguay
DYEAR=1999
DGENRE=Other
TTITLE0=Ich bin nicht mehr jung
TTITLE1=Der Fatalist
TTITLE2=Uruguay
TTITLE3=Sprechteil
TTITLE4=Tütensuppen
TTITLE5=Lesbische schwarze Behinderte
TTITLE6=So läßt man sich nicht gehen
TTITLE7=Frau am Steuer
TTITLE8=ICE
TTITLE9="Killing Me Softly" pfeifen
TTITLE10=Wo kommen die Gedanken her
TTITLE11=Nachdenken im Auto
TTITLE12=Berlin International
TTITLE13=Jan Ullrich
TTITLE14=Ich liebe Jazz
TTITLE15=Novemberlied
TTITLE16=Evangelisches Mädchen
TTITLE17=Adam and Eva
TTITLE18=Homebanking
TTITLE19=Plastikball
TTITLE20=Hochhaus
TTITLE21=Chanson aus Paris
TTITLE22=Ich muß immer an die Frauen denken
EXTD=
EXTT0=
EXTT1=
EXTT2=
EXTT3=
EXTT4=
EXTT5=
EXTT6=
EXTT7=
EXTT8=
EXTT9=
EXTT10=
EXTT11=
EXTT12=
EXTT13=
EXTT14=
EXTT15=
EXTT16=
EXTT17=
EXTT18=
EXTT19=
EXTT20=
EXTT21=
EXTT22=
PLAYORDER=
